<mxfile host="drawio-plugin" modified="2022-11-10T10:05:58.328Z" agent="5.0 (Macintosh; Intel Mac OS X 10_15_7) AppleWebKit/537.36 (KHTML, like Gecko) Chrome/98.0.4758.102 Safari/537.36" etag="9fwL-ozHnqZb9CYLXSAo" version="15.5.4" type="embed"><diagram id="C5RBs43oDa-KdzZeNtuy" name="Page-1"><mxGraphModel dx="744" dy="561" grid="1" gridSize="10" guides="1" tooltips="1" connect="1" arrows="1" fold="1" page="1" pageScale="1" pageWidth="1390" pageHeight="980" math="0" shadow="0"><root><mxCell id="WIyWlLk6GJQsqaUBKTNV-0"/><mxCell id="WIyWlLk6GJQsqaUBKTNV-1" parent="WIyWlLk6GJQsqaUBKTNV-0"/><mxCell id="zkfFHV4jXpPFQw0GAbJ--6" value="Scene" style="swimlane;fontStyle=0;align=center;verticalAlign=top;childLayout=stackLayout;horizontal=1;startSize=26;horizontalStack=0;resizeParent=1;resizeLast=0;collapsible=1;marginBottom=0;rounded=0;shadow=0;strokeWidth=1;" parent="WIyWlLk6GJQsqaUBKTNV-1" vertex="1"><mxGeometry x="400" y="77" width="152" height="268" as="geometry"><mxRectangle x="120" y="360" width="160" height="26" as="alternateBounds"/></mxGeometry></mxCell><mxCell id="zkfFHV4jXpPFQw0GAbJ--9" value="" style="line;html=1;strokeWidth=1;align=left;verticalAlign=middle;spacingTop=-1;spacingLeft=3;spacingRight=3;rotatable=0;labelPosition=right;points=[];portConstraint=eastwest;" parent="zkfFHV4jXpPFQw0GAbJ--6" vertex="1"><mxGeometry y="26" width="152" height="8" as="geometry"/></mxCell><mxCell id="2hxpH5w9TuHF01aktV_q-33" value="addLightSource()" style="text;align=left;verticalAlign=top;spacingLeft=4;spacingRight=4;overflow=hidden;rotatable=0;points=[[0,0.5],[1,0.5]];portConstraint=eastwest;rounded=0;shadow=0;html=0;" parent="zkfFHV4jXpPFQw0GAbJ--6" vertex="1"><mxGeometry y="34" width="152" height="26" as="geometry"/></mxCell><mxCell id="2hxpH5w9TuHF01aktV_q-32" value="removeLightSource()" style="text;align=left;verticalAlign=top;spacingLeft=4;spacingRight=4;overflow=hidden;rotatable=0;points=[[0,0.5],[1,0.5]];portConstraint=eastwest;rounded=0;shadow=0;html=0;" parent="zkfFHV4jXpPFQw0GAbJ--6" vertex="1"><mxGeometry y="60" width="152" height="26" as="geometry"/></mxCell><mxCell id="2hxpH5w9TuHF01aktV_q-34" value="changeLightSource()" style="text;align=left;verticalAlign=top;spacingLeft=4;spacingRight=4;overflow=hidden;rotatable=0;points=[[0,0.5],[1,0.5]];portConstraint=eastwest;rounded=0;shadow=0;html=0;" parent="zkfFHV4jXpPFQw0GAbJ--6" vertex="1"><mxGeometry y="86" width="152" height="26" as="geometry"/></mxCell><mxCell id="6HVsxSzAW9lzDEwn9dUi-0" value="addCamera()" style="text;align=left;verticalAlign=top;spacingLeft=4;spacingRight=4;overflow=hidden;rotatable=0;points=[[0,0.5],[1,0.5]];portConstraint=eastwest;rounded=0;shadow=0;html=0;" parent="zkfFHV4jXpPFQw0GAbJ--6" vertex="1"><mxGeometry y="112" width="152" height="26" as="geometry"/></mxCell><mxCell id="6HVsxSzAW9lzDEwn9dUi-1" value="removeCamera()" style="text;align=left;verticalAlign=top;spacingLeft=4;spacingRight=4;overflow=hidden;rotatable=0;points=[[0,0.5],[1,0.5]];portConstraint=eastwest;rounded=0;shadow=0;html=0;" parent="zkfFHV4jXpPFQw0GAbJ--6" vertex="1"><mxGeometry y="138" width="152" height="26" as="geometry"/></mxCell><mxCell id="6HVsxSzAW9lzDEwn9dUi-2" value="changeCamera()" style="text;align=left;verticalAlign=top;spacingLeft=4;spacingRight=4;overflow=hidden;rotatable=0;points=[[0,0.5],[1,0.5]];portConstraint=eastwest;rounded=0;shadow=0;html=0;" parent="zkfFHV4jXpPFQw0GAbJ--6" vertex="1"><mxGeometry y="164" width="152" height="26" as="geometry"/></mxCell><mxCell id="6HVsxSzAW9lzDEwn9dUi-39" value="addPolygon()" style="text;align=left;verticalAlign=top;spacingLeft=4;spacingRight=4;overflow=hidden;rotatable=0;points=[[0,0.5],[1,0.5]];portConstraint=eastwest;rounded=0;shadow=0;html=0;" parent="zkfFHV4jXpPFQw0GAbJ--6" vertex="1"><mxGeometry y="190" width="152" height="26" as="geometry"/></mxCell><mxCell id="6HVsxSzAW9lzDEwn9dUi-40" value="Lists for every aggregate" style="text;align=left;verticalAlign=top;spacingLeft=4;spacingRight=4;overflow=hidden;rotatable=0;points=[[0,0.5],[1,0.5]];portConstraint=eastwest;rounded=0;shadow=0;html=0;" parent="zkfFHV4jXpPFQw0GAbJ--6" vertex="1"><mxGeometry y="216" width="152" height="26" as="geometry"/></mxCell><mxCell id="2hxpH5w9TuHF01aktV_q-7" value="LightSource" style="swimlane;fontStyle=0;align=center;verticalAlign=top;childLayout=stackLayout;horizontal=1;startSize=30;horizontalStack=0;resizeParent=1;resizeLast=0;collapsible=1;marginBottom=0;rounded=0;shadow=0;strokeWidth=1;" parent="WIyWlLk6GJQsqaUBKTNV-1" vertex="1"><mxGeometry x="617" y="244" width="90" height="118" as="geometry"><mxRectangle x="120" y="360" width="160" height="26" as="alternateBounds"/></mxGeometry></mxCell><mxCell id="2hxpH5w9TuHF01aktV_q-8" value="name" style="text;align=left;verticalAlign=top;spacingLeft=4;spacingRight=4;overflow=hidden;rotatable=0;points=[[0,0.5],[1,0.5]];portConstraint=eastwest;" parent="2hxpH5w9TuHF01aktV_q-7" vertex="1"><mxGeometry y="30" width="90" height="26" as="geometry"/></mxCell><mxCell id="2hxpH5w9TuHF01aktV_q-9" value="type" style="text;align=left;verticalAlign=top;spacingLeft=4;spacingRight=4;overflow=hidden;rotatable=0;points=[[0,0.5],[1,0.5]];portConstraint=eastwest;rounded=0;shadow=0;html=0;" parent="2hxpH5w9TuHF01aktV_q-7" vertex="1"><mxGeometry y="56" width="90" height="28" as="geometry"/></mxCell><mxCell id="6HVsxSzAW9lzDEwn9dUi-3" value="power" style="text;align=left;verticalAlign=top;spacingLeft=4;spacingRight=4;overflow=hidden;rotatable=0;points=[[0,0.5],[1,0.5]];portConstraint=eastwest;rounded=0;shadow=0;html=0;" parent="2hxpH5w9TuHF01aktV_q-7" vertex="1"><mxGeometry y="84" width="90" height="26" as="geometry"/></mxCell><mxCell id="2hxpH5w9TuHF01aktV_q-10" value="" style="line;html=1;strokeWidth=1;align=left;verticalAlign=middle;spacingTop=-1;spacingLeft=3;spacingRight=3;rotatable=0;labelPosition=right;points=[];portConstraint=eastwest;" parent="2hxpH5w9TuHF01aktV_q-7" vertex="1"><mxGeometry y="110" width="90" height="8" as="geometry"/></mxCell><mxCell id="2hxpH5w9TuHF01aktV_q-12" value="Camera" style="swimlane;fontStyle=0;align=center;verticalAlign=top;childLayout=stackLayout;horizontal=1;startSize=26;horizontalStack=0;resizeParent=1;resizeLast=0;collapsible=1;marginBottom=0;rounded=0;shadow=0;strokeWidth=1;" parent="WIyWlLk6GJQsqaUBKTNV-1" vertex="1"><mxGeometry x="617" y="409" width="90" height="112" as="geometry"><mxRectangle x="120" y="360" width="160" height="26" as="alternateBounds"/></mxGeometry></mxCell><mxCell id="2hxpH5w9TuHF01aktV_q-13" value="name" style="text;align=left;verticalAlign=top;spacingLeft=4;spacingRight=4;overflow=hidden;rotatable=0;points=[[0,0.5],[1,0.5]];portConstraint=eastwest;" parent="2hxpH5w9TuHF01aktV_q-12" vertex="1"><mxGeometry y="26" width="90" height="26" as="geometry"/></mxCell><mxCell id="2hxpH5w9TuHF01aktV_q-14" value="type" style="text;align=left;verticalAlign=top;spacingLeft=4;spacingRight=4;overflow=hidden;rotatable=0;points=[[0,0.5],[1,0.5]];portConstraint=eastwest;rounded=0;shadow=0;html=0;" parent="2hxpH5w9TuHF01aktV_q-12" vertex="1"><mxGeometry y="52" width="90" height="26" as="geometry"/></mxCell><mxCell id="2hxpH5w9TuHF01aktV_q-15" value="isCurrent" style="text;align=left;verticalAlign=top;spacingLeft=4;spacingRight=4;overflow=hidden;rotatable=0;points=[[0,0.5],[1,0.5]];portConstraint=eastwest;rounded=0;shadow=0;html=0;" parent="2hxpH5w9TuHF01aktV_q-12" vertex="1"><mxGeometry y="78" width="90" height="26" as="geometry"/></mxCell><mxCell id="2hxpH5w9TuHF01aktV_q-16" value="" style="line;html=1;strokeWidth=1;align=left;verticalAlign=middle;spacingTop=-1;spacingLeft=3;spacingRight=3;rotatable=0;labelPosition=right;points=[];portConstraint=eastwest;" parent="2hxpH5w9TuHF01aktV_q-12" vertex="1"><mxGeometry y="104" width="90" height="8" as="geometry"/></mxCell><mxCell id="2hxpH5w9TuHF01aktV_q-24" value="ISceneLoader" style="swimlane;fontStyle=0;align=center;verticalAlign=top;childLayout=stackLayout;horizontal=1;startSize=26;horizontalStack=0;resizeParent=1;resizeLast=0;collapsible=1;marginBottom=0;rounded=0;shadow=0;strokeWidth=1;" parent="WIyWlLk6GJQsqaUBKTNV-1" vertex="1"><mxGeometry x="140" y="60" width="220" height="90" as="geometry"><mxRectangle x="120" y="360" width="160" height="26" as="alternateBounds"/></mxGeometry></mxCell><mxCell id="2hxpH5w9TuHF01aktV_q-25" value="loadFromFile(fileName:String) : Scene" style="text;align=left;verticalAlign=top;spacingLeft=4;spacingRight=4;overflow=hidden;rotatable=0;points=[[0,0.5],[1,0.5]];portConstraint=eastwest;rounded=0;shadow=0;html=0;fontStyle=2" parent="2hxpH5w9TuHF01aktV_q-24" vertex="1"><mxGeometry y="26" width="220" height="26" as="geometry"/></mxCell><mxCell id="2hxpH5w9TuHF01aktV_q-26" value="" style="line;html=1;strokeWidth=1;align=left;verticalAlign=middle;spacingTop=-1;spacingLeft=3;spacingRight=3;rotatable=0;labelPosition=right;points=[];portConstraint=eastwest;" parent="2hxpH5w9TuHF01aktV_q-24" vertex="1"><mxGeometry y="52" width="220" height="8" as="geometry"/></mxCell><mxCell id="2hxpH5w9TuHF01aktV_q-27" value="Scene3DSLoader" style="swimlane;fontStyle=0;align=center;verticalAlign=top;childLayout=stackLayout;horizontal=1;startSize=26;horizontalStack=0;resizeParent=1;resizeLast=0;collapsible=1;marginBottom=0;rounded=0;shadow=0;strokeWidth=1;" parent="WIyWlLk6GJQsqaUBKTNV-1" vertex="1"><mxGeometry x="140" y="238" width="220" height="90" as="geometry"><mxRectangle x="120" y="360" width="160" height="26" as="alternateBounds"/></mxGeometry></mxCell><mxCell id="2hxpH5w9TuHF01aktV_q-28" value="loadFromFile(fileName:String) : Scene" style="text;align=left;verticalAlign=top;spacingLeft=4;spacingRight=4;overflow=hidden;rotatable=0;points=[[0,0.5],[1,0.5]];portConstraint=eastwest;rounded=0;shadow=0;html=0;fontStyle=0" parent="2hxpH5w9TuHF01aktV_q-27" vertex="1"><mxGeometry y="26" width="220" height="26" as="geometry"/></mxCell><mxCell id="2hxpH5w9TuHF01aktV_q-29" value="" style="line;html=1;strokeWidth=1;align=left;verticalAlign=middle;spacingTop=-1;spacingLeft=3;spacingRight=3;rotatable=0;labelPosition=right;points=[];portConstraint=eastwest;" parent="2hxpH5w9TuHF01aktV_q-27" vertex="1"><mxGeometry y="52" width="220" height="8" as="geometry"/></mxCell><mxCell id="2hxpH5w9TuHF01aktV_q-30" value="" style="endArrow=block;endSize=10;endFill=0;shadow=0;strokeWidth=1;rounded=0;edgeStyle=elbowEdgeStyle;elbow=vertical;dashed=1;" parent="WIyWlLk6GJQsqaUBKTNV-1" edge="1"><mxGeometry width="160" relative="1" as="geometry"><mxPoint x="210.5" y="240" as="sourcePoint"/><mxPoint x="210" y="150" as="targetPoint"/></mxGeometry></mxCell><mxCell id="2hxpH5w9TuHF01aktV_q-31" value="" style="endArrow=open;endFill=1;endSize=12;html=1;rounded=0;dashed=1;entryX=0;entryY=0.5;entryDx=0;entryDy=0;" parent="WIyWlLk6GJQsqaUBKTNV-1" edge="1"><mxGeometry width="160" relative="1" as="geometry"><mxPoint x="360" y="114.5" as="sourcePoint"/><mxPoint x="400" y="116" as="targetPoint"/></mxGeometry></mxCell><mxCell id="6HVsxSzAW9lzDEwn9dUi-5" value="1" style="endArrow=open;html=1;endSize=12;startArrow=diamondThin;startSize=14;startFill=1;edgeStyle=orthogonalEdgeStyle;align=left;verticalAlign=bottom;rounded=0;" parent="WIyWlLk6GJQsqaUBKTNV-1" edge="1"><mxGeometry x="-1" y="3" relative="1" as="geometry"><mxPoint x="552" y="300" as="sourcePoint"/><mxPoint x="620" y="300" as="targetPoint"/></mxGeometry></mxCell><mxCell id="6HVsxSzAW9lzDEwn9dUi-6" value="n" style="text;html=1;align=center;verticalAlign=middle;resizable=0;points=[];autosize=1;strokeColor=none;fillColor=none;" parent="WIyWlLk6GJQsqaUBKTNV-1" vertex="1"><mxGeometry x="587" y="280" width="20" height="20" as="geometry"/></mxCell><mxCell id="6HVsxSzAW9lzDEwn9dUi-11" value="1" style="endArrow=open;html=1;endSize=12;startArrow=diamondThin;startSize=14;startFill=1;edgeStyle=orthogonalEdgeStyle;align=left;verticalAlign=bottom;rounded=0;entryX=0.001;entryY=0.073;entryDx=0;entryDy=0;entryPerimeter=0;" parent="WIyWlLk6GJQsqaUBKTNV-1" target="2hxpH5w9TuHF01aktV_q-13" edge="1"><mxGeometry x="-1" y="3" relative="1" as="geometry"><mxPoint x="552" y="340" as="sourcePoint"/><mxPoint x="590" y="460" as="targetPoint"/><Array as="points"><mxPoint x="590" y="340"/><mxPoint x="590" y="437"/></Array></mxGeometry></mxCell><mxCell id="6HVsxSzAW9lzDEwn9dUi-12" value="n" style="text;html=1;align=center;verticalAlign=middle;resizable=0;points=[];autosize=1;strokeColor=none;fillColor=none;" parent="WIyWlLk6GJQsqaUBKTNV-1" vertex="1"><mxGeometry x="587" y="424" width="20" height="20" as="geometry"/></mxCell><mxCell id="6HVsxSzAW9lzDEwn9dUi-13" value="IRenderer" style="swimlane;fontStyle=0;align=center;verticalAlign=top;childLayout=stackLayout;horizontal=1;startSize=26;horizontalStack=0;resizeParent=1;resizeLast=0;collapsible=1;marginBottom=0;rounded=0;shadow=0;strokeWidth=1;" parent="WIyWlLk6GJQsqaUBKTNV-1" vertex="1"><mxGeometry x="909" y="60" width="131" height="90" as="geometry"><mxRectangle x="120" y="360" width="160" height="26" as="alternateBounds"/></mxGeometry></mxCell><mxCell id="6HVsxSzAW9lzDEwn9dUi-14" value="renderScene()" style="text;align=left;verticalAlign=top;spacingLeft=4;spacingRight=4;overflow=hidden;rotatable=0;points=[[0,0.5],[1,0.5]];portConstraint=eastwest;rounded=0;shadow=0;html=0;fontStyle=2" parent="6HVsxSzAW9lzDEwn9dUi-13" vertex="1"><mxGeometry y="26" width="131" height="26" as="geometry"/></mxCell><mxCell id="6HVsxSzAW9lzDEwn9dUi-15" value="" style="line;html=1;strokeWidth=1;align=left;verticalAlign=middle;spacingTop=-1;spacingLeft=3;spacingRight=3;rotatable=0;labelPosition=right;points=[];portConstraint=eastwest;" parent="6HVsxSzAW9lzDEwn9dUi-13" vertex="1"><mxGeometry y="52" width="131" height="8" as="geometry"/></mxCell><mxCell id="6HVsxSzAW9lzDEwn9dUi-41" value="setScene(sc : Scene)" style="text;align=left;verticalAlign=top;spacingLeft=4;spacingRight=4;overflow=hidden;rotatable=0;points=[[0,0.5],[1,0.5]];portConstraint=eastwest;rounded=0;shadow=0;html=0;fontStyle=0" parent="6HVsxSzAW9lzDEwn9dUi-13" vertex="1"><mxGeometry y="60" width="131" height="26" as="geometry"/></mxCell><mxCell id="6HVsxSzAW9lzDEwn9dUi-16" value="RendererAlgo1" style="swimlane;fontStyle=0;align=center;verticalAlign=top;childLayout=stackLayout;horizontal=1;startSize=26;horizontalStack=0;resizeParent=1;resizeLast=0;collapsible=1;marginBottom=0;rounded=0;shadow=0;strokeWidth=1;" parent="WIyWlLk6GJQsqaUBKTNV-1" vertex="1"><mxGeometry x="740" y="250" width="150" height="90" as="geometry"><mxRectangle x="120" y="360" width="160" height="26" as="alternateBounds"/></mxGeometry></mxCell><mxCell id="6HVsxSzAW9lzDEwn9dUi-17" value="renderScene()" style="text;align=left;verticalAlign=top;spacingLeft=4;spacingRight=4;overflow=hidden;rotatable=0;points=[[0,0.5],[1,0.5]];portConstraint=eastwest;rounded=0;shadow=0;html=0;fontStyle=0" parent="6HVsxSzAW9lzDEwn9dUi-16" vertex="1"><mxGeometry y="26" width="150" height="26" as="geometry"/></mxCell><mxCell id="6HVsxSzAW9lzDEwn9dUi-18" value="" style="line;html=1;strokeWidth=1;align=left;verticalAlign=middle;spacingTop=-1;spacingLeft=3;spacingRight=3;rotatable=0;labelPosition=right;points=[];portConstraint=eastwest;" parent="6HVsxSzAW9lzDEwn9dUi-16" vertex="1"><mxGeometry y="52" width="150" height="8" as="geometry"/></mxCell><mxCell id="6HVsxSzAW9lzDEwn9dUi-19" value="RendererAlgo2" style="swimlane;fontStyle=0;align=center;verticalAlign=top;childLayout=stackLayout;horizontal=1;startSize=26;horizontalStack=0;resizeParent=1;resizeLast=0;collapsible=1;marginBottom=0;rounded=0;shadow=0;strokeWidth=1;" parent="WIyWlLk6GJQsqaUBKTNV-1" vertex="1"><mxGeometry x="908" y="250" width="150" height="90" as="geometry"><mxRectangle x="120" y="360" width="160" height="26" as="alternateBounds"/></mxGeometry></mxCell><mxCell id="6HVsxSzAW9lzDEwn9dUi-20" value="renderScene()" style="text;align=left;verticalAlign=top;spacingLeft=4;spacingRight=4;overflow=hidden;rotatable=0;points=[[0,0.5],[1,0.5]];portConstraint=eastwest;rounded=0;shadow=0;html=0;fontStyle=0" parent="6HVsxSzAW9lzDEwn9dUi-19" vertex="1"><mxGeometry y="26" width="150" height="26" as="geometry"/></mxCell><mxCell id="6HVsxSzAW9lzDEwn9dUi-21" value="" style="line;html=1;strokeWidth=1;align=left;verticalAlign=middle;spacingTop=-1;spacingLeft=3;spacingRight=3;rotatable=0;labelPosition=right;points=[];portConstraint=eastwest;" parent="6HVsxSzAW9lzDEwn9dUi-19" vertex="1"><mxGeometry y="52" width="150" height="8" as="geometry"/></mxCell><mxCell id="6HVsxSzAW9lzDEwn9dUi-22" value="RendererPhotoReal" style="swimlane;fontStyle=0;align=center;verticalAlign=top;childLayout=stackLayout;horizontal=1;startSize=26;horizontalStack=0;resizeParent=1;resizeLast=0;collapsible=1;marginBottom=0;rounded=0;shadow=0;strokeWidth=1;" parent="WIyWlLk6GJQsqaUBKTNV-1" vertex="1"><mxGeometry x="1080" y="250" width="140" height="90" as="geometry"><mxRectangle x="120" y="360" width="160" height="26" as="alternateBounds"/></mxGeometry></mxCell><mxCell id="6HVsxSzAW9lzDEwn9dUi-23" value="renderScene()" style="text;align=left;verticalAlign=top;spacingLeft=4;spacingRight=4;overflow=hidden;rotatable=0;points=[[0,0.5],[1,0.5]];portConstraint=eastwest;rounded=0;shadow=0;html=0;fontStyle=0" parent="6HVsxSzAW9lzDEwn9dUi-22" vertex="1"><mxGeometry y="26" width="140" height="26" as="geometry"/></mxCell><mxCell id="6HVsxSzAW9lzDEwn9dUi-24" value="" style="line;html=1;strokeWidth=1;align=left;verticalAlign=middle;spacingTop=-1;spacingLeft=3;spacingRight=3;rotatable=0;labelPosition=right;points=[];portConstraint=eastwest;" parent="6HVsxSzAW9lzDEwn9dUi-22" vertex="1"><mxGeometry y="52" width="140" height="8" as="geometry"/></mxCell><mxCell id="6HVsxSzAW9lzDEwn9dUi-25" value="" style="endArrow=block;endSize=10;endFill=0;shadow=0;strokeWidth=1;rounded=0;edgeStyle=elbowEdgeStyle;elbow=vertical;dashed=1;exitX=0.344;exitY=-0.011;exitDx=0;exitDy=0;exitPerimeter=0;" parent="WIyWlLk6GJQsqaUBKTNV-1" source="6HVsxSzAW9lzDEwn9dUi-19" edge="1"><mxGeometry width="160" relative="1" as="geometry"><mxPoint x="960" y="240" as="sourcePoint"/><mxPoint x="959.5" y="150" as="targetPoint"/></mxGeometry></mxCell><mxCell id="6HVsxSzAW9lzDEwn9dUi-26" value="" style="endArrow=none;endFill=0;shadow=0;strokeWidth=1;rounded=0;edgeStyle=elbowEdgeStyle;elbow=vertical;dashed=1;exitX=0.344;exitY=-0.011;exitDx=0;exitDy=0;exitPerimeter=0;" parent="WIyWlLk6GJQsqaUBKTNV-1" edge="1"><mxGeometry width="160" relative="1" as="geometry"><mxPoint x="820.0999999999999" y="250" as="sourcePoint"/><mxPoint x="960" y="180" as="targetPoint"/></mxGeometry></mxCell><mxCell id="6HVsxSzAW9lzDEwn9dUi-27" value="" style="endArrow=none;endFill=0;shadow=0;strokeWidth=1;rounded=0;edgeStyle=elbowEdgeStyle;elbow=vertical;dashed=1;exitX=0.344;exitY=-0.011;exitDx=0;exitDy=0;exitPerimeter=0;" parent="WIyWlLk6GJQsqaUBKTNV-1" edge="1"><mxGeometry width="160" relative="1" as="geometry"><mxPoint x="1120" y="246" as="sourcePoint"/><mxPoint x="960" y="186" as="targetPoint"/><Array as="points"><mxPoint x="1030" y="216"/></Array></mxGeometry></mxCell><mxCell id="6HVsxSzAW9lzDEwn9dUi-28" value="Editor" style="swimlane;fontStyle=0;align=center;verticalAlign=top;childLayout=stackLayout;horizontal=1;startSize=26;horizontalStack=0;resizeParent=1;resizeLast=0;collapsible=1;marginBottom=0;rounded=0;shadow=0;strokeWidth=1;" parent="WIyWlLk6GJQsqaUBKTNV-1" vertex="1"><mxGeometry x="679" y="670" width="272" height="182" as="geometry"><mxRectangle x="120" y="360" width="160" height="26" as="alternateBounds"/></mxGeometry></mxCell><mxCell id="6HVsxSzAW9lzDEwn9dUi-67" value="loadFrom3DSFileBtn : Button" style="text;align=left;verticalAlign=top;spacingLeft=4;spacingRight=4;overflow=hidden;rotatable=0;points=[[0,0.5],[1,0.5]];portConstraint=eastwest;rounded=0;shadow=0;html=0;" parent="6HVsxSzAW9lzDEwn9dUi-28" vertex="1"><mxGeometry y="26" width="272" height="26" as="geometry"/></mxCell><mxCell id="6HVsxSzAW9lzDEwn9dUi-68" value="saveTo3DSFileBtn : Button" style="text;align=left;verticalAlign=top;spacingLeft=4;spacingRight=4;overflow=hidden;rotatable=0;points=[[0,0.5],[1,0.5]];portConstraint=eastwest;rounded=0;shadow=0;html=0;" parent="6HVsxSzAW9lzDEwn9dUi-28" vertex="1"><mxGeometry y="52" width="272" height="26" as="geometry"/></mxCell><mxCell id="6HVsxSzAW9lzDEwn9dUi-69" value="saveScrToBMPBtn : Button" style="text;align=left;verticalAlign=top;spacingLeft=4;spacingRight=4;overflow=hidden;rotatable=0;points=[[0,0.5],[1,0.5]];portConstraint=eastwest;rounded=0;shadow=0;html=0;" parent="6HVsxSzAW9lzDEwn9dUi-28" vertex="1"><mxGeometry y="78" width="272" height="26" as="geometry"/></mxCell><mxCell id="6HVsxSzAW9lzDEwn9dUi-70" value="renderByALgo1Btn : Button" style="text;align=left;verticalAlign=top;spacingLeft=4;spacingRight=4;overflow=hidden;rotatable=0;points=[[0,0.5],[1,0.5]];portConstraint=eastwest;rounded=0;shadow=0;html=0;" parent="6HVsxSzAW9lzDEwn9dUi-28" vertex="1"><mxGeometry y="104" width="272" height="26" as="geometry"/></mxCell><mxCell id="6HVsxSzAW9lzDEwn9dUi-71" value="renderPhotoRealBtn : Button" style="text;align=left;verticalAlign=top;spacingLeft=4;spacingRight=4;overflow=hidden;rotatable=0;points=[[0,0.5],[1,0.5]];portConstraint=eastwest;rounded=0;shadow=0;html=0;" parent="6HVsxSzAW9lzDEwn9dUi-28" vertex="1"><mxGeometry y="130" width="272" height="26" as="geometry"/></mxCell><mxCell id="6HVsxSzAW9lzDEwn9dUi-72" value="add, remove, change buttons for current scene" style="text;align=left;verticalAlign=top;spacingLeft=4;spacingRight=4;overflow=hidden;rotatable=0;points=[[0,0.5],[1,0.5]];portConstraint=eastwest;rounded=0;shadow=0;html=0;" parent="6HVsxSzAW9lzDEwn9dUi-28" vertex="1"><mxGeometry y="156" width="272" height="26" as="geometry"/></mxCell><mxCell id="6HVsxSzAW9lzDEwn9dUi-31" value="Polygon" style="swimlane;fontStyle=0;align=center;verticalAlign=top;childLayout=stackLayout;horizontal=1;startSize=30;horizontalStack=0;resizeParent=1;resizeLast=0;collapsible=1;marginBottom=0;rounded=0;shadow=0;strokeWidth=1;" parent="WIyWlLk6GJQsqaUBKTNV-1" vertex="1"><mxGeometry x="617" y="147" width="90" height="66" as="geometry"><mxRectangle x="120" y="360" width="160" height="26" as="alternateBounds"/></mxGeometry></mxCell><mxCell id="6HVsxSzAW9lzDEwn9dUi-33" value="type" style="text;align=left;verticalAlign=top;spacingLeft=4;spacingRight=4;overflow=hidden;rotatable=0;points=[[0,0.5],[1,0.5]];portConstraint=eastwest;rounded=0;shadow=0;html=0;" parent="6HVsxSzAW9lzDEwn9dUi-31" vertex="1"><mxGeometry y="30" width="90" height="28" as="geometry"/></mxCell><mxCell id="6HVsxSzAW9lzDEwn9dUi-36" value="" style="line;html=1;strokeWidth=1;align=left;verticalAlign=middle;spacingTop=-1;spacingLeft=3;spacingRight=3;rotatable=0;labelPosition=right;points=[];portConstraint=eastwest;" parent="6HVsxSzAW9lzDEwn9dUi-31" vertex="1"><mxGeometry y="58" width="90" height="8" as="geometry"/></mxCell><mxCell id="6HVsxSzAW9lzDEwn9dUi-37" value="1" style="endArrow=open;html=1;endSize=12;startArrow=diamondThin;startSize=14;startFill=1;edgeStyle=orthogonalEdgeStyle;align=left;verticalAlign=bottom;rounded=0;entryX=0;entryY=0.5;entryDx=0;entryDy=0;" parent="WIyWlLk6GJQsqaUBKTNV-1" target="6HVsxSzAW9lzDEwn9dUi-33" edge="1"><mxGeometry x="-1" y="3" relative="1" as="geometry"><mxPoint x="550" y="250" as="sourcePoint"/><mxPoint x="627" y="310" as="targetPoint"/><Array as="points"><mxPoint x="570" y="250"/><mxPoint x="570" y="191"/></Array></mxGeometry></mxCell><mxCell id="6HVsxSzAW9lzDEwn9dUi-38" value="n" style="text;html=1;align=center;verticalAlign=middle;resizable=0;points=[];autosize=1;strokeColor=none;fillColor=none;" parent="WIyWlLk6GJQsqaUBKTNV-1" vertex="1"><mxGeometry x="587" y="170" width="20" height="20" as="geometry"/></mxCell><mxCell id="6HVsxSzAW9lzDEwn9dUi-43" value="1" style="endArrow=open;html=1;endSize=12;startArrow=diamondThin;startSize=14;startFill=0;edgeStyle=orthogonalEdgeStyle;align=left;verticalAlign=bottom;rounded=0;exitX=0.008;exitY=-0.154;exitDx=0;exitDy=0;exitPerimeter=0;entryX=1;entryY=0.5;entryDx=0;entryDy=0;" parent="WIyWlLk6GJQsqaUBKTNV-1" source="6HVsxSzAW9lzDEwn9dUi-41" edge="1"><mxGeometry x="-0.8444" relative="1" as="geometry"><mxPoint x="798" y="134.5" as="sourcePoint"/><mxPoint x="552" y="116" as="targetPoint"/><Array as="points"><mxPoint x="590" y="116"/><mxPoint x="590" y="116"/></Array><mxPoint as="offset"/></mxGeometry></mxCell><mxCell id="6HVsxSzAW9lzDEwn9dUi-44" value="1" style="edgeLabel;html=1;align=center;verticalAlign=middle;resizable=0;points=[];" parent="6HVsxSzAW9lzDEwn9dUi-43" vertex="1" connectable="0"><mxGeometry x="0.9115" y="2" relative="1" as="geometry"><mxPoint as="offset"/></mxGeometry></mxCell><mxCell id="6HVsxSzAW9lzDEwn9dUi-45" value="ISceneSaver" style="swimlane;fontStyle=0;align=center;verticalAlign=top;childLayout=stackLayout;horizontal=1;startSize=26;horizontalStack=0;resizeParent=1;resizeLast=0;collapsible=1;marginBottom=0;rounded=0;shadow=0;strokeWidth=1;" parent="WIyWlLk6GJQsqaUBKTNV-1" vertex="1"><mxGeometry x="780" y="370" width="220" height="90" as="geometry"><mxRectangle x="120" y="360" width="160" height="26" as="alternateBounds"/></mxGeometry></mxCell><mxCell id="6HVsxSzAW9lzDEwn9dUi-46" value="saveToFile(fileName:String, sc : Scene)" style="text;align=left;verticalAlign=top;spacingLeft=4;spacingRight=4;overflow=hidden;rotatable=0;points=[[0,0.5],[1,0.5]];portConstraint=eastwest;rounded=0;shadow=0;html=0;fontStyle=2" parent="6HVsxSzAW9lzDEwn9dUi-45" vertex="1"><mxGeometry y="26" width="220" height="26" as="geometry"/></mxCell><mxCell id="6HVsxSzAW9lzDEwn9dUi-47" value="" style="line;html=1;strokeWidth=1;align=left;verticalAlign=middle;spacingTop=-1;spacingLeft=3;spacingRight=3;rotatable=0;labelPosition=right;points=[];portConstraint=eastwest;" parent="6HVsxSzAW9lzDEwn9dUi-45" vertex="1"><mxGeometry y="52" width="220" height="8" as="geometry"/></mxCell><mxCell id="6HVsxSzAW9lzDEwn9dUi-48" value="Scene3DSSaver" style="swimlane;fontStyle=0;align=center;verticalAlign=top;childLayout=stackLayout;horizontal=1;startSize=26;horizontalStack=0;resizeParent=1;resizeLast=0;collapsible=1;marginBottom=0;rounded=0;shadow=0;strokeWidth=1;" parent="WIyWlLk6GJQsqaUBKTNV-1" vertex="1"><mxGeometry x="790" y="500" width="230" height="90" as="geometry"><mxRectangle x="120" y="360" width="160" height="26" as="alternateBounds"/></mxGeometry></mxCell><mxCell id="6HVsxSzAW9lzDEwn9dUi-49" value="saveToFile(fileName:String, sc : Scene)" style="text;align=left;verticalAlign=top;spacingLeft=4;spacingRight=4;overflow=hidden;rotatable=0;points=[[0,0.5],[1,0.5]];portConstraint=eastwest;rounded=0;shadow=0;html=0;fontStyle=0" parent="6HVsxSzAW9lzDEwn9dUi-48" vertex="1"><mxGeometry y="26" width="230" height="26" as="geometry"/></mxCell><mxCell id="6HVsxSzAW9lzDEwn9dUi-50" value="" style="line;html=1;strokeWidth=1;align=left;verticalAlign=middle;spacingTop=-1;spacingLeft=3;spacingRight=3;rotatable=0;labelPosition=right;points=[];portConstraint=eastwest;" parent="6HVsxSzAW9lzDEwn9dUi-48" vertex="1"><mxGeometry y="52" width="230" height="8" as="geometry"/></mxCell><mxCell id="6HVsxSzAW9lzDEwn9dUi-51" value="" style="endArrow=block;endSize=10;endFill=0;shadow=0;strokeWidth=1;rounded=0;edgeStyle=elbowEdgeStyle;elbow=vertical;dashed=1;" parent="WIyWlLk6GJQsqaUBKTNV-1" edge="1"><mxGeometry width="160" relative="1" as="geometry"><mxPoint x="905" y="505" as="sourcePoint"/><mxPoint x="904.5" y="460" as="targetPoint"/></mxGeometry></mxCell><mxCell id="6HVsxSzAW9lzDEwn9dUi-53" value="BMPSaver" style="swimlane;fontStyle=0;align=center;verticalAlign=top;childLayout=stackLayout;horizontal=1;startSize=26;horizontalStack=0;resizeParent=1;resizeLast=0;collapsible=1;marginBottom=0;rounded=0;shadow=0;strokeWidth=1;" parent="WIyWlLk6GJQsqaUBKTNV-1" vertex="1"><mxGeometry x="1020" y="370" width="230" height="90" as="geometry"><mxRectangle x="120" y="360" width="160" height="26" as="alternateBounds"/></mxGeometry></mxCell><mxCell id="6HVsxSzAW9lzDEwn9dUi-54" value="saveScreenToBMPFile(fileName:String)" style="text;align=left;verticalAlign=top;spacingLeft=4;spacingRight=4;overflow=hidden;rotatable=0;points=[[0,0.5],[1,0.5]];portConstraint=eastwest;rounded=0;shadow=0;html=0;fontStyle=0" parent="6HVsxSzAW9lzDEwn9dUi-53" vertex="1"><mxGeometry y="26" width="230" height="26" as="geometry"/></mxCell><mxCell id="6HVsxSzAW9lzDEwn9dUi-55" value="" style="line;html=1;strokeWidth=1;align=left;verticalAlign=middle;spacingTop=-1;spacingLeft=3;spacingRight=3;rotatable=0;labelPosition=right;points=[];portConstraint=eastwest;" parent="6HVsxSzAW9lzDEwn9dUi-53" vertex="1"><mxGeometry y="52" width="230" height="8" as="geometry"/></mxCell><mxCell id="6HVsxSzAW9lzDEwn9dUi-56" value="Application" style="swimlane;fontStyle=0;align=center;verticalAlign=top;childLayout=stackLayout;horizontal=1;startSize=26;horizontalStack=0;resizeParent=1;resizeLast=0;collapsible=1;marginBottom=0;rounded=0;shadow=0;strokeWidth=1;" parent="WIyWlLk6GJQsqaUBKTNV-1" vertex="1"><mxGeometry x="150" y="500" width="230" height="240" as="geometry"><mxRectangle x="120" y="360" width="160" height="26" as="alternateBounds"/></mxGeometry></mxCell><mxCell id="6HVsxSzAW9lzDEwn9dUi-62" value="editor : Editor" style="text;align=left;verticalAlign=top;spacingLeft=4;spacingRight=4;overflow=hidden;rotatable=0;points=[[0,0.5],[1,0.5]];portConstraint=eastwest;rounded=0;shadow=0;html=0;" parent="6HVsxSzAW9lzDEwn9dUi-56" vertex="1"><mxGeometry y="26" width="230" height="26" as="geometry"/></mxCell><mxCell id="6HVsxSzAW9lzDEwn9dUi-63" value="rendererAlgo1 : RendererAlgo1" style="text;align=left;verticalAlign=top;spacingLeft=4;spacingRight=4;overflow=hidden;rotatable=0;points=[[0,0.5],[1,0.5]];portConstraint=eastwest;rounded=0;shadow=0;html=0;" parent="6HVsxSzAW9lzDEwn9dUi-56" vertex="1"><mxGeometry y="52" width="230" height="26" as="geometry"/></mxCell><mxCell id="6HVsxSzAW9lzDEwn9dUi-64" value="rendererPhotoReal : RendererPhotoReal" style="text;align=left;verticalAlign=top;spacingLeft=4;spacingRight=4;overflow=hidden;rotatable=0;points=[[0,0.5],[1,0.5]];portConstraint=eastwest;rounded=0;shadow=0;html=0;" parent="6HVsxSzAW9lzDEwn9dUi-56" vertex="1"><mxGeometry y="78" width="230" height="26" as="geometry"/></mxCell><mxCell id="6HVsxSzAW9lzDEwn9dUi-65" value="sc : Scene" style="text;align=left;verticalAlign=top;spacingLeft=4;spacingRight=4;overflow=hidden;rotatable=0;points=[[0,0.5],[1,0.5]];portConstraint=eastwest;rounded=0;shadow=0;html=0;" parent="6HVsxSzAW9lzDEwn9dUi-56" vertex="1"><mxGeometry y="104" width="230" height="26" as="geometry"/></mxCell><mxCell id="6HVsxSzAW9lzDEwn9dUi-75" value="scene3DSLoader: Scene3DSLoader" style="text;align=left;verticalAlign=top;spacingLeft=4;spacingRight=4;overflow=hidden;rotatable=0;points=[[0,0.5],[1,0.5]];portConstraint=eastwest;rounded=0;shadow=0;html=0;" parent="6HVsxSzAW9lzDEwn9dUi-56" vertex="1"><mxGeometry y="130" width="230" height="26" as="geometry"/></mxCell><mxCell id="6HVsxSzAW9lzDEwn9dUi-76" value="scene3DSSaver: Scene3DSSaver" style="text;align=left;verticalAlign=top;spacingLeft=4;spacingRight=4;overflow=hidden;rotatable=0;points=[[0,0.5],[1,0.5]];portConstraint=eastwest;rounded=0;shadow=0;html=0;" parent="6HVsxSzAW9lzDEwn9dUi-56" vertex="1"><mxGeometry y="156" width="230" height="26" as="geometry"/></mxCell><mxCell id="6HVsxSzAW9lzDEwn9dUi-77" value="bMPSaver: BMPSaver" style="text;align=left;verticalAlign=top;spacingLeft=4;spacingRight=4;overflow=hidden;rotatable=0;points=[[0,0.5],[1,0.5]];portConstraint=eastwest;rounded=0;shadow=0;html=0;" parent="6HVsxSzAW9lzDEwn9dUi-56" vertex="1"><mxGeometry y="182" width="230" height="26" as="geometry"/></mxCell><mxCell id="6HVsxSzAW9lzDEwn9dUi-58" value="" style="endArrow=open;html=1;endSize=12;startArrow=diamondThin;startSize=14;startFill=0;edgeStyle=orthogonalEdgeStyle;align=left;verticalAlign=bottom;rounded=0;" parent="WIyWlLk6GJQsqaUBKTNV-1" edge="1"><mxGeometry x="-0.4" y="-50" relative="1" as="geometry"><mxPoint x="380" y="715" as="sourcePoint"/><mxPoint x="680" y="715" as="targetPoint"/><Array as="points"><mxPoint x="680" y="715"/></Array><mxPoint as="offset"/></mxGeometry></mxCell><mxCell id="6HVsxSzAW9lzDEwn9dUi-78" value="" style="endArrow=open;html=1;endSize=12;startArrow=diamondThin;startSize=14;startFill=1;edgeStyle=orthogonalEdgeStyle;align=left;verticalAlign=bottom;rounded=0;entryX=0.5;entryY=1;entryDx=0;entryDy=0;exitX=0.434;exitY=-0.014;exitDx=0;exitDy=0;exitPerimeter=0;" parent="WIyWlLk6GJQsqaUBKTNV-1" source="6HVsxSzAW9lzDEwn9dUi-56" target="2hxpH5w9TuHF01aktV_q-27" edge="1"><mxGeometry x="-0.5952" y="-86" relative="1" as="geometry"><mxPoint x="250" y="490" as="sourcePoint"/><mxPoint x="370" y="422" as="targetPoint"/><Array as="points"/><mxPoint x="-2" y="1" as="offset"/></mxGeometry></mxCell><mxCell id="6HVsxSzAW9lzDEwn9dUi-80" value="" style="endArrow=open;html=1;endSize=12;startArrow=diamondThin;startSize=14;startFill=1;edgeStyle=orthogonalEdgeStyle;align=left;verticalAlign=bottom;rounded=0;" parent="WIyWlLk6GJQsqaUBKTNV-1" edge="1"><mxGeometry x="-0.5952" y="-86" relative="1" as="geometry"><mxPoint x="381" y="510" as="sourcePoint"/><mxPoint x="471" y="345" as="targetPoint"/><Array as="points"><mxPoint x="471" y="510"/></Array><mxPoint x="-2" y="1" as="offset"/></mxGeometry></mxCell><mxCell id="6HVsxSzAW9lzDEwn9dUi-81" value="" style="endArrow=open;html=1;endSize=12;startArrow=diamondThin;startSize=14;startFill=1;edgeStyle=orthogonalEdgeStyle;align=left;verticalAlign=bottom;rounded=0;" parent="WIyWlLk6GJQsqaUBKTNV-1" edge="1"><mxGeometry x="-0.5952" y="-86" relative="1" as="geometry"><mxPoint x="380" y="565" as="sourcePoint"/><mxPoint x="750" y="340" as="targetPoint"/><Array as="points"><mxPoint x="750" y="565"/><mxPoint x="750" y="345"/></Array><mxPoint x="-2" y="1" as="offset"/></mxGeometry></mxCell><mxCell id="6HVsxSzAW9lzDEwn9dUi-82" value="" style="endArrow=open;html=1;endSize=12;startArrow=diamondThin;startSize=14;startFill=1;edgeStyle=orthogonalEdgeStyle;align=left;verticalAlign=bottom;rounded=0;" parent="WIyWlLk6GJQsqaUBKTNV-1" edge="1"><mxGeometry x="-0.5952" y="-86" relative="1" as="geometry"><mxPoint x="380" y="654" as="sourcePoint"/><mxPoint x="1160" y="460" as="targetPoint"/><Array as="points"><mxPoint x="1160" y="654"/></Array><mxPoint x="-2" y="1" as="offset"/></mxGeometry></mxCell><mxCell id="6HVsxSzAW9lzDEwn9dUi-83" value="" style="endArrow=open;html=1;endSize=12;startArrow=diamondThin;startSize=14;startFill=1;edgeStyle=orthogonalEdgeStyle;align=left;verticalAlign=bottom;rounded=0;" parent="WIyWlLk6GJQsqaUBKTNV-1" edge="1"><mxGeometry x="-0.5952" y="-86" relative="1" as="geometry"><mxPoint x="380" y="628" as="sourcePoint"/><mxPoint x="930" y="590" as="targetPoint"/><Array as="points"><mxPoint x="930" y="628"/><mxPoint x="930" y="610"/></Array><mxPoint x="-2" y="1" as="offset"/></mxGeometry></mxCell><mxCell id="0" value="Actor" style="shape=umlActor;verticalLabelPosition=bottom;verticalAlign=top;html=1;outlineConnect=0;" vertex="1" parent="WIyWlLk6GJQsqaUBKTNV-1"><mxGeometry x="60" y="385" width="30" height="60" as="geometry"/></mxCell><mxCell id="1" value="" style="shape=xor;whiteSpace=wrap;html=1;" vertex="1" parent="WIyWlLk6GJQsqaUBKTNV-1"><mxGeometry x="40" y="194" width="60" height="80" as="geometry"/></mxCell></root></mxGraphModel></diagram></mxfile>